<mxfile host="app.diagrams.net" modified="2022-12-14T02:21:23.038Z" agent="5.0 (Windows NT 6.1; Win64; x64) AppleWebKit/537.36 (KHTML, like Gecko) Chrome/108.0.0.0 Safari/537.36" etag="3fS281FizxSPu1FL3QGJ" version="20.6.2" type="github">
  <diagram id="C5RBs43oDa-KdzZeNtuy" name="游戏主流程">
    <mxGraphModel dx="1422" dy="762" grid="1" gridSize="10" guides="1" tooltips="1" connect="1" arrows="1" fold="1" page="1" pageScale="1" pageWidth="827" pageHeight="1169" math="0" shadow="0">
      <root>
        <mxCell id="WIyWlLk6GJQsqaUBKTNV-0" />
        <mxCell id="WIyWlLk6GJQsqaUBKTNV-1" parent="WIyWlLk6GJQsqaUBKTNV-0" />
        <mxCell id="_uNkih6J6qpBRCYkUTNe-3" value="" style="edgeStyle=orthogonalEdgeStyle;rounded=0;orthogonalLoop=1;jettySize=auto;html=1;" edge="1" parent="WIyWlLk6GJQsqaUBKTNV-1" source="_uNkih6J6qpBRCYkUTNe-0" target="_uNkih6J6qpBRCYkUTNe-2">
          <mxGeometry relative="1" as="geometry" />
        </mxCell>
        <mxCell id="_uNkih6J6qpBRCYkUTNe-0" value="游戏开始" style="ellipse;whiteSpace=wrap;html=1;" vertex="1" parent="WIyWlLk6GJQsqaUBKTNV-1">
          <mxGeometry x="340" y="70" width="120" height="80" as="geometry" />
        </mxCell>
        <mxCell id="_uNkih6J6qpBRCYkUTNe-1" value="游戏结束" style="ellipse;whiteSpace=wrap;html=1;" vertex="1" parent="WIyWlLk6GJQsqaUBKTNV-1">
          <mxGeometry x="340" y="550" width="120" height="80" as="geometry" />
        </mxCell>
        <mxCell id="_uNkih6J6qpBRCYkUTNe-5" value="" style="edgeStyle=orthogonalEdgeStyle;rounded=0;orthogonalLoop=1;jettySize=auto;html=1;" edge="1" parent="WIyWlLk6GJQsqaUBKTNV-1" source="_uNkih6J6qpBRCYkUTNe-2" target="_uNkih6J6qpBRCYkUTNe-4">
          <mxGeometry relative="1" as="geometry" />
        </mxCell>
        <mxCell id="_uNkih6J6qpBRCYkUTNe-2" value="分配角色" style="whiteSpace=wrap;html=1;" vertex="1" parent="WIyWlLk6GJQsqaUBKTNV-1">
          <mxGeometry x="340" y="180" width="120" height="60" as="geometry" />
        </mxCell>
        <mxCell id="_uNkih6J6qpBRCYkUTNe-15" value="" style="edgeStyle=orthogonalEdgeStyle;rounded=0;orthogonalLoop=1;jettySize=auto;html=1;" edge="1" parent="WIyWlLk6GJQsqaUBKTNV-1" source="_uNkih6J6qpBRCYkUTNe-4" target="_uNkih6J6qpBRCYkUTNe-11">
          <mxGeometry relative="1" as="geometry" />
        </mxCell>
        <mxCell id="_uNkih6J6qpBRCYkUTNe-4" value="分发手牌" style="whiteSpace=wrap;html=1;" vertex="1" parent="WIyWlLk6GJQsqaUBKTNV-1">
          <mxGeometry x="340" y="260" width="120" height="60" as="geometry" />
        </mxCell>
        <mxCell id="_uNkih6J6qpBRCYkUTNe-16" value="" style="edgeStyle=orthogonalEdgeStyle;rounded=0;orthogonalLoop=1;jettySize=auto;html=1;" edge="1" parent="WIyWlLk6GJQsqaUBKTNV-1" source="_uNkih6J6qpBRCYkUTNe-11" target="_uNkih6J6qpBRCYkUTNe-14">
          <mxGeometry relative="1" as="geometry" />
        </mxCell>
        <mxCell id="_uNkih6J6qpBRCYkUTNe-11" value="玩家回合" style="whiteSpace=wrap;html=1;" vertex="1" parent="WIyWlLk6GJQsqaUBKTNV-1">
          <mxGeometry x="340" y="350" width="120" height="60" as="geometry" />
        </mxCell>
        <mxCell id="_uNkih6J6qpBRCYkUTNe-17" value="是" style="edgeStyle=orthogonalEdgeStyle;rounded=0;orthogonalLoop=1;jettySize=auto;html=1;" edge="1" parent="WIyWlLk6GJQsqaUBKTNV-1" source="_uNkih6J6qpBRCYkUTNe-14" target="_uNkih6J6qpBRCYkUTNe-1">
          <mxGeometry relative="1" as="geometry" />
        </mxCell>
        <mxCell id="_uNkih6J6qpBRCYkUTNe-18" value="否" style="edgeStyle=orthogonalEdgeStyle;rounded=0;orthogonalLoop=1;jettySize=auto;html=1;entryX=1;entryY=0.4;entryDx=0;entryDy=0;entryPerimeter=0;" edge="1" parent="WIyWlLk6GJQsqaUBKTNV-1" source="_uNkih6J6qpBRCYkUTNe-14" target="_uNkih6J6qpBRCYkUTNe-11">
          <mxGeometry relative="1" as="geometry">
            <Array as="points">
              <mxPoint x="480" y="480" />
              <mxPoint x="480" y="374" />
            </Array>
          </mxGeometry>
        </mxCell>
        <mxCell id="_uNkih6J6qpBRCYkUTNe-14" value="游戏是否结束" style="rhombus;whiteSpace=wrap;html=1;" vertex="1" parent="WIyWlLk6GJQsqaUBKTNV-1">
          <mxGeometry x="360" y="440" width="80" height="80" as="geometry" />
        </mxCell>
      </root>
    </mxGraphModel>
  </diagram>
</mxfile>
